# xmcd
#
# Track frame offsets: 
#        150
#        18220
#        34088
#        52297
#        73295
#        90793
#        104620
#        120160
#        133895
#        163326
#        179982
#        202437
#        218888
#        234755
#
# Disc length: 3906 seconds
#
# Revision: 18
# Processed by: cddbd v1.5.2PL0 Copyright (c) Steve Scherf et al.
# Submitted via: ExactAudioCopyFreeDBPlugin 1.0
#
DISCID=d40f400e
DTITLE=Status Quo - Rockin' All Over The World
DYEAR=2000
DGENRE=Rock
TTITLE0=Whatever You Want
TTITLE1=Rockin' All Over The World
TTITLE2=Little Dreamer
TTITLE3=Ain't Complaining
TTITLE4=In The Army Now
TTITLE5=Fun Fun Fun
TTITLE6=Is There A Better Way
TTITLE7=Rolling Home
TTITLE8=Mystery Song
TTITLE9=Caroline
TTITLE10=End Of The Line
TTITLE11=Don't Stop
TTITLE12=Proud Mary
TTITLE13=Forty Five Hundred Times
EXTD=YEAR: 2000
EXTT0=
EXTT1=
EXTT2=
EXTT3=
EXTT4=
EXTT5=
EXTT6=
EXTT7=
EXTT8=
EXTT9=
EXTT10=
EXTT11=
EXTT12=
EXTT13=
PLAYORDER=
